<?xml version="1.0" encoding="utf-8"?><svg xmlns="http://www.w3.org/2000/svg" xmlns:xlink="http://www.w3.org/1999/xlink"><symbol viewBox="0 0 24 25" id="facebook-header" xmlns="http://www.w3.org/2000/svg"><g id="aAssets / Facebook-Header" clip-path="url(#aclip0_141541_1097)"><path id="aVector" d="M24 12.5733C24 5.90541 18.6274 0.5 12 0.5C5.37258 0.5 0 5.90541 0 12.5733C0 18.5995 4.38823 23.5943 10.125 24.5V16.0633H7.07813V12.5733H10.125V9.91343C10.125 6.88755 11.9165 5.21615 14.6576 5.21615C15.9705 5.21615 17.3438 5.45195 17.3438 5.45195V8.42313H15.8306C14.3399 8.42313 13.875 9.35379 13.875 10.3086V12.5733H17.2031L16.6711 16.0633H13.875V24.5C19.6118 23.5943 24 18.5995 24 12.5733Z"/></g><defs><clipPath id="aclip0_141541_1097"><rect width="24" height="24" transform="translate(0 0.5)"/></clipPath></defs></symbol><symbol viewBox="0 0 42 42" id="new" xmlns="http://www.w3.org/2000/svg"><g id="bButton / Scroll " clip-path="url(#bclip0_22728_11340)"><circle id="bEllipse" opacity="0.5" cx="21" cy="21" r="20" stroke-width="2"/><path id="bVector" d="M12 18L21 27L30 18" stroke-width="2"/></g><defs><clipPath id="bclip0_22728_11340"><rect width="42" height="42"/></clipPath></defs></symbol></svg>