<?xml version="1.0" encoding="utf-8"?><svg viewBox="0 0 42 42" xmlns="http://www.w3.org/2000/svg" xmlns:xlink="http://www.w3.org/1999/xlink"><style>:root>svg{display:none}:root>svg:target{display:block}</style><svg fill="none" viewBox="0 0 32 33" id="Hamburger" xmlns="http://www.w3.org/2000/svg"><g stroke="#fff" stroke-width="2"><path d="M7 10.5h18M7 16.5h18M7 22.5h18"/></g></svg><svg fill="none" viewBox="0 0 24 25" id="facebook-header" xmlns="http://www.w3.org/2000/svg"><g clip-path="url(#aa)"><path d="M24 12.573C24 5.905 18.627.5 12 .5S0 5.905 0 12.573C0 18.6 4.388 23.594 10.125 24.5v-8.437H7.078v-3.49h3.047v-2.66c0-3.025 1.791-4.697 4.533-4.697 1.313 0 2.686.236 2.686.236v2.971H15.83c-1.491 0-1.956.93-1.956 1.886v2.264h3.328l-.532 3.49h-2.796V24.5C19.612 23.594 24 18.6 24 12.573Z" fill="#fff"/></g><defs><clipPath id="aa"><path fill="#fff" transform="translate(0 .5)" d="M0 0h24v24H0z"/></clipPath></defs></svg><svg fill="none" viewBox="0 0 42 42" id="new" xmlns="http://www.w3.org/2000/svg"><g clip-path="url(#ca)" stroke="#fff" stroke-width="2"><circle opacity=".5" cx="21" cy="21" r="20"/><path d="m12 18 9 9 9-9"/></g><defs><clipPath id="ca"><path fill="#fff" d="M0 0h42v42H0z"/></clipPath></defs></svg></svg>